<svg width="45" height="46" viewBox="0 0 45 46" fill="none" xmlns="http://www.w3.org/2000/svg">
<g clip-path="url(#clip0_7_931)">
<path d="M44.3848 36.8909H40.5615V17.1978C40.5617 17.0918 40.5345 16.9875 40.4825 16.8951C40.4305 16.8027 40.3555 16.7254 40.2648 16.6705L22.8185 6.11621C22.7224 6.05808 22.6123 6.02734 22.5 6.02734C22.3877 6.02734 22.2776 6.05808 22.1815 6.11621L4.7352 16.6715C4.64449 16.7264 4.56951 16.8038 4.51753 16.8962C4.46554 16.9886 4.43831 17.0929 4.43848 17.1989V36.892H0.615235C0.534382 36.892 0.454322 36.9079 0.379632 36.9389C0.304943 36.9699 0.237089 37.0152 0.17995 37.0724C0.122811 37.1296 0.0775074 37.1976 0.0466304 37.2723C0.0157533 37.347 -9.20015e-05 37.4271 4.01822e-07 37.5079V40.3204C4.01822e-07 40.4836 0.0648195 40.6401 0.180198 40.7555C0.295577 40.8708 0.452064 40.9357 0.615235 40.9357H44.3848C44.5479 40.9357 44.7044 40.8708 44.8198 40.7555C44.9352 40.6401 45 40.4836 45 40.3204V37.5079C45.0002 37.427 44.9845 37.3468 44.9537 37.272C44.9229 37.1971 44.8776 37.1291 44.8204 37.0718C44.7633 37.0144 44.6954 36.969 44.6206 36.9379C44.5459 36.9069 44.4657 36.8909 44.3848 36.8909ZM5.66895 30.6525H16.5234V33.4266H5.66895V30.6525ZM17.7539 24.195C17.7547 23.426 18.0606 22.6887 18.6043 22.145C19.1481 21.6013 19.8853 21.2954 20.6543 21.2946H21.8848V27.5749C21.8839 29.2423 21.5129 30.8887 20.7986 32.3954C20.0842 33.902 19.0443 35.2313 17.7539 36.2873V24.195ZM39.3311 33.4273H28.4766V30.6525H39.3311V33.4273ZM27.2461 36.2873C25.9556 35.2314 24.9157 33.9021 24.2013 32.3954C23.4869 30.8888 23.116 29.2423 23.1152 27.5749V21.2946H24.3457C25.1147 21.2954 25.8519 21.6013 26.3957 22.145C26.9394 22.6887 27.2453 23.426 27.2461 24.195V36.2873ZM19.1102 36.737C20.6696 35.2945 21.8361 33.4789 22.5 31.4611C23.1902 33.5499 24.4142 35.4222 26.0508 36.8923H18.9492C19.0044 36.84 19.0547 36.7876 19.1102 36.737ZM28.4766 34.6578H39.3311V36.8909H28.4766V34.6578ZM22.5 7.36145L39.3311 17.5448V29.422H28.4766V24.195C28.4753 23.0998 28.0396 22.0498 27.2652 21.2754C26.4908 20.501 25.4409 20.0654 24.3457 20.0641H20.6543C19.5591 20.0653 18.5091 20.5009 17.7347 21.2753C16.9603 22.0498 16.5246 23.0998 16.5234 24.195V29.422H5.66895V17.5448L22.5 7.36145ZM5.66895 34.6578H16.5234V36.8909H5.66895V34.6578ZM43.7695 39.7034H1.23047V38.1214H43.7695V39.7034Z" fill="#2437AC"/>
<path d="M11.096 27.2632C11.6795 27.2633 12.2499 27.0903 12.735 26.7662C13.2202 26.4421 13.5983 25.9814 13.8217 25.4424C14.045 24.9034 14.1035 24.3102 13.9897 23.738C13.8759 23.1657 13.595 22.64 13.1824 22.2274C12.7699 21.8148 12.2443 21.5338 11.672 21.42C11.0998 21.3061 10.5066 21.3645 9.96755 21.5878C9.42849 21.8111 8.96775 22.1892 8.64359 22.6743C8.31943 23.1594 8.14641 23.7298 8.14641 24.3132C8.14725 25.0953 8.45826 25.8451 9.01123 26.3981C9.5642 26.9512 10.314 27.2623 11.096 27.2632ZM11.096 22.5938C11.4361 22.5937 11.7686 22.6945 12.0514 22.8834C12.3342 23.0723 12.5547 23.3408 12.6849 23.655C12.8151 23.9692 12.8492 24.3149 12.7829 24.6485C12.7166 24.9821 12.5528 25.2885 12.3124 25.529C12.0719 25.7695 11.7655 25.9333 11.432 25.9997C11.0984 26.066 10.7526 26.032 10.4384 25.9019C10.1242 25.7717 9.85564 25.5514 9.66669 25.2686C9.47773 24.9858 9.37688 24.6533 9.37688 24.3132C9.37771 23.8575 9.55909 23.4207 9.8813 23.0984C10.2035 22.7761 10.6403 22.5947 11.096 22.5938Z" fill="#2437AC"/>
<path d="M22.4998 18.1343C23.0833 18.1343 23.6536 17.9613 24.1388 17.6371C24.6239 17.3129 25.002 16.8521 25.2253 16.313C25.4485 15.7739 25.5069 15.1807 25.393 14.6084C25.2791 14.0362 24.998 13.5105 24.5853 13.098C24.1727 12.6855 23.6469 12.4046 23.0746 12.2909C22.5023 12.1772 21.9091 12.2358 21.3701 12.4592C20.8311 12.6827 20.3705 13.0609 20.0464 13.5462C19.7224 14.0315 19.5496 14.6019 19.5498 15.1854C19.5509 15.9673 19.8621 16.7169 20.4151 17.2697C20.9681 17.8225 21.7178 18.1335 22.4998 18.1343ZM22.4998 13.4648C22.8398 13.4648 23.1722 13.5657 23.455 13.7546C23.7377 13.9435 23.9581 14.2119 24.0883 14.5261C24.2184 14.8402 24.2526 15.1859 24.1863 15.5194C24.12 15.8529 23.9564 16.1593 23.716 16.3998C23.4756 16.6403 23.1693 16.8042 22.8359 16.8707C22.5024 16.9371 22.1567 16.9032 21.8425 16.7732C21.5283 16.6433 21.2596 16.423 21.0706 16.1404C20.8815 15.8578 20.7805 15.5254 20.7803 15.1854C20.7808 14.7294 20.9621 14.2923 21.2845 13.9698C21.6068 13.6473 22.0438 13.4657 22.4998 13.4648Z" fill="#2437AC"/>
<path d="M33.9036 27.2632C34.4871 27.2633 35.0575 27.0903 35.5426 26.7662C36.0278 26.4421 36.406 25.9814 36.6293 25.4424C36.8526 24.9034 36.9111 24.3102 36.7973 23.738C36.6835 23.1657 36.4026 22.64 35.99 22.2274C35.5775 21.8148 35.0519 21.5338 34.4796 21.42C33.9074 21.3061 33.3142 21.3645 32.7752 21.5878C32.2361 21.8111 31.7754 22.1892 31.4512 22.6743C31.127 23.1594 30.954 23.7298 30.954 24.3132C30.9549 25.0953 31.2659 25.8451 31.8188 26.3981C32.3718 26.9512 33.1216 27.2623 33.9036 27.2632ZM33.9036 22.5938C34.2437 22.5937 34.5762 22.6945 34.859 22.8834C35.1418 23.0723 35.3623 23.3408 35.4925 23.655C35.6227 23.9692 35.6568 24.3149 35.5905 24.6485C35.5242 24.9821 35.3604 25.2885 35.12 25.529C34.8795 25.7695 34.5731 25.9333 34.2396 25.9997C33.906 26.066 33.5603 26.032 33.246 25.9019C32.9318 25.7717 32.6633 25.5514 32.4743 25.2686C32.2854 24.9858 32.1845 24.6533 32.1845 24.3132C32.1853 23.8575 32.3667 23.4207 32.6889 23.0984C33.0111 22.7761 33.4479 22.5947 33.9036 22.5938Z" fill="#2437AC"/>
</g>
<defs>
<clipPath id="clip0_7_931">
<rect width="45" height="45" fill="white" transform="translate(0 0.980469)"/>
</clipPath>
</defs>
</svg>
