<svg width="108" height="49" viewBox="0 0 108 49" fill="none" xmlns="http://www.w3.org/2000/svg">
<path d="M11.4932 30.3578C11.4932 31.0706 11.3425 31.733 11.041 32.3454C10.7395 32.9492 10.3123 33.469 9.77609 33.8885C9.23164 34.3162 8.58675 34.6432 7.84098 34.8778C7.09555 35.1126 6.27475 35.23 5.38675 35.23C4.32275 35.23 3.36809 35.0875 2.53075 34.794C1.69315 34.5089 0.847199 34.0225 0.000976562 33.3514L1.40009 31.0785C2.07013 31.6403 2.67298 32.0509 3.21787 32.3114C3.75395 32.5714 4.30675 32.6971 4.87653 32.6971C5.57173 32.6971 6.12453 32.521 6.55209 32.1604C6.97929 31.7998 7.18027 31.3218 7.18027 30.7098C7.18027 30.4498 7.13838 30.2066 7.06302 29.9802C6.98763 29.7538 6.84524 29.519 6.64426 29.2758C6.4432 29.041 6.15849 28.7727 5.79831 28.496C5.44649 28.2192 4.98587 27.867 4.41609 27.456C3.98889 27.1541 3.56178 26.8354 3.1512 26.5164C2.7408 26.1894 2.37227 25.8456 2.02853 25.4764C1.69351 25.1074 1.42551 24.6966 1.21609 24.2355C1.01502 23.7827 0.906221 23.2542 0.906221 22.6755C0.906221 22.0047 1.04862 21.384 1.32498 20.8302C1.60133 20.2764 1.98667 19.8071 2.47253 19.4133C2.95831 19.0192 3.53653 18.7173 4.22275 18.4995C4.90115 18.2815 5.63787 18.1725 6.44231 18.1725C7.28827 18.1725 8.10098 18.2815 8.88764 18.508C9.67493 18.7344 10.4041 19.0614 11.0823 19.4973L9.81742 21.5435C8.95475 20.9397 8.04142 20.6298 7.08675 20.6298C6.5088 20.6298 6.02275 20.7807 5.64586 21.0826C5.26898 21.3844 5.07626 21.7618 5.07626 22.223C5.07626 22.6591 5.24382 23.0532 5.57884 23.3972C5.91387 23.7494 6.49173 24.2274 7.31307 24.8648C8.14231 25.4686 8.82951 26.0052 9.36551 26.4577C9.90995 26.9105 10.3371 27.3466 10.6553 27.7492C10.9736 28.1518 11.183 28.5543 11.3086 28.9732C11.4342 29.4009 11.4929 29.8537 11.4929 30.3572L11.4932 30.3578ZM25.8577 26.5258C25.8577 27.1547 25.7907 27.8343 25.6567 28.5632C25.531 29.2928 25.3049 29.9641 24.9867 30.5845C24.6684 31.205 24.258 31.717 23.7467 32.1107C23.2357 32.5132 22.5822 32.7145 21.8036 32.7145C20.4969 32.7145 19.4667 32.1946 18.7129 31.1465C17.959 30.1065 17.5822 28.6727 17.5822 26.8531C17.5822 24.9829 17.9591 23.5074 18.7298 22.4087C19.492 21.31 20.5307 20.7651 21.8373 20.7651C23.0773 20.7651 24.0569 21.285 24.7769 22.3082C25.4972 23.3394 25.8578 24.7482 25.8578 26.526L25.8577 26.5258ZM30.3972 26.3665C30.3972 25.1505 30.2213 24.0438 29.878 23.0545C29.5261 22.0562 29.0404 21.2011 28.3953 20.4802C27.7504 19.7591 26.9962 19.2056 26.1171 18.8029C25.238 18.4002 24.2664 18.1992 23.2024 18.1992C22.03 18.1992 20.9997 18.4256 20.1117 18.8617C19.2239 19.3061 18.3944 20.0021 17.6406 20.9577L17.6156 18.5843H13.436V42.9754H17.6076V32.6732C18.018 33.1512 18.4116 33.5537 18.7969 33.8803C19.1738 34.2074 19.5591 34.4757 19.9524 34.677C20.346 34.8782 20.7564 35.0291 21.1916 35.113C21.6271 35.1969 22.0964 35.2388 22.5907 35.2388C23.6964 35.2388 24.7347 35.0123 25.6893 34.5763C26.644 34.1319 27.4733 33.5114 28.1684 32.7061C28.8636 31.9008 29.4084 30.9621 29.8022 29.8972C30.2043 28.8234 30.3969 27.6412 30.3969 26.3666L30.3972 26.3665ZM32.2568 34.8447H36.5448V10.978H32.2568V34.8447ZM54.8346 34.853V18.5686H50.5466V27.3313C50.5466 28.1112 50.5131 28.7153 50.446 29.1428C50.379 29.5705 50.2701 29.9478 50.1194 30.3002C49.5163 31.6415 48.402 32.3215 46.786 32.3215C45.5211 32.3215 44.642 31.8687 44.1389 30.9544C43.938 30.6106 43.8039 30.2164 43.7285 29.7802C43.6531 29.3442 43.6113 28.7153 43.6113 27.885V18.5695H39.3233V27.8228C39.3233 28.4517 39.3316 28.9882 39.3401 29.4157C39.3484 29.8434 39.382 30.2375 39.4238 30.573C39.4657 30.9085 39.5159 31.2104 39.5746 31.4708C39.6248 31.7307 39.7086 31.9823 39.8175 32.2171C40.2111 33.2154 40.8397 33.97 41.7188 34.4811C42.5983 34.9926 43.6788 35.2442 44.9517 35.2442C46.0993 35.2442 47.1126 35.0429 47.9837 34.6404C48.8548 34.2379 49.7011 33.5835 50.5215 32.6698L50.5299 34.8502L54.8348 34.8586L54.8346 34.853ZM73.3146 34.8447V25.6091C73.3146 24.9802 73.3062 24.4438 73.2978 23.9994C73.2894 23.5549 73.2644 23.1692 73.214 22.842C73.1722 22.5149 73.1136 22.2298 73.0549 21.9866C72.9879 21.7351 72.9125 21.4919 72.8288 21.257C72.4351 20.2846 71.8066 19.5299 70.9275 19.001C70.0484 18.4722 68.9675 18.2044 67.6857 18.2044C66.5381 18.2044 65.5248 18.4057 64.6537 18.8082C63.7826 19.2106 62.9364 19.873 62.1159 20.7788L62.1076 18.5984H57.7938V34.8473H62.1156V26.0757C62.1156 25.321 62.1407 24.7255 62.1993 24.3059C62.2495 23.8866 62.3585 23.4925 62.5092 23.1148C62.7856 22.4607 63.2212 21.9744 63.799 21.6393C64.3769 21.3042 65.0639 21.1362 65.8675 21.1362C67.1323 21.1362 68.0115 21.589 68.5146 22.5033C68.7073 22.8471 68.8412 23.2412 68.9166 23.6686C68.992 24.0963 69.0339 24.7335 69.0339 25.5557V34.8268L73.3139 34.8353L73.3146 34.8447ZM91.0568 33.7709L84.5243 25.6447L90.0435 19.7247L86.7937 18.3247L81.0479 24.9914H80.5956V10.9825H76.2739V34.8491H80.5956V26.2038L87.0614 35.1727L91.0561 33.7718L91.0568 33.7709ZM107.759 27.9345V25.2758L94.7635 18.7514V21.6776L104.835 26.5834L94.7635 31.5558V34.4154L107.759 27.9336V27.9345ZM96.0257 14.53C95.2301 14.53 94.5848 15.1841 94.5848 15.9896C94.5848 16.8114 95.2301 17.4571 96.0257 17.4571C96.8301 17.4571 97.4666 16.8114 97.4666 15.9896C97.4666 15.1762 96.8301 14.53 96.0257 14.53ZM96.0346 14.7564C96.679 14.7564 97.1981 15.3098 97.1981 15.9973C97.1981 16.685 96.679 17.2382 96.0346 17.2302C95.3812 17.2302 94.8612 16.6851 94.8612 15.9893C94.8612 15.31 95.3812 14.7564 96.0346 14.7564ZM95.7581 16.1404H95.9332C96.143 16.1404 96.2435 16.2159 96.2852 16.4256C96.319 16.6436 96.3608 16.7862 96.3946 16.8365H96.671C96.6452 16.7862 96.6035 16.6856 96.5706 16.434C96.5368 16.1908 96.4444 16.065 96.2941 16.0399V16.0231C96.4701 15.9728 96.6124 15.8387 96.6124 15.629C96.6124 15.478 96.5617 15.3606 96.4612 15.2935C96.3608 15.218 96.2017 15.1677 95.959 15.1677C95.7661 15.1677 95.6319 15.1845 95.4986 15.2097V16.8363H95.7581V16.1403V16.1404ZM95.7581 15.3857C95.7999 15.3773 95.8586 15.3689 95.9421 15.3689C96.2355 15.3689 96.3359 15.5115 96.3359 15.6541C96.3359 15.8553 96.151 15.9308 95.9421 15.9308H95.7581V15.3857V15.3857Z" fill="#0C1724"/>
</svg>
