<svg width="144" height="49" viewBox="0 0 144 49" fill="none" xmlns="http://www.w3.org/2000/svg">
<path d="M143.733 24.6043V20.0102C142.834 20.0461 140.138 20.4128 138.945 21.8435V20.3265H133.912V35.633H138.945V28.4004C139.664 24.9925 142.921 24.6331 143.747 24.6043H143.733ZM98.6546 24.784C98.1146 24.3011 97.4973 23.9122 96.8285 23.6337C96.2777 23.3653 95.6725 23.2275 95.0598 23.2311C94.606 23.2266 94.1567 23.3224 93.7442 23.5115C93.5562 23.5878 93.3969 23.721 93.2885 23.8925C93.1802 24.0641 93.1283 24.2652 93.1402 24.4677C93.1353 24.673 93.1971 24.8745 93.3163 25.0417C93.4356 25.2089 93.6059 25.333 93.8017 25.3951C94.5041 25.6551 95.2251 25.8618 95.9585 26.0134C96.5559 26.1429 97.1424 26.3184 97.7128 26.5383C98.2864 26.757 98.8243 27.0599 99.3089 27.437C99.7816 27.8089 100.173 28.2738 100.459 28.803C100.76 29.3945 100.909 30.0519 100.891 30.7154C100.922 31.5257 100.739 32.3299 100.361 33.0469C99.9819 33.7639 99.4207 34.3683 98.7337 34.799C98.0748 35.2262 97.3441 35.5306 96.5768 35.6977C95.8044 35.8831 95.013 35.9772 94.2187 35.9781C92.9599 35.9782 91.7095 35.7743 90.5161 35.3742C89.3829 35.0218 88.3469 34.4115 87.4893 33.5912L89.9768 30.4781C90.5831 31.032 91.272 31.488 92.0187 31.8298C92.6721 32.1584 93.3938 32.3284 94.1252 32.3259C94.552 32.3215 94.9723 32.2207 95.3546 32.0311C95.5489 31.9408 95.7109 31.7932 95.8189 31.6081C95.9268 31.423 95.9756 31.2094 95.9585 30.9958C95.9612 30.7681 95.8935 30.5452 95.7649 30.3574C95.6362 30.1695 95.4528 30.0259 95.2396 29.9461C94.4898 29.6341 93.7123 29.3934 92.9174 29.2272C92.3677 29.0981 91.8272 28.9324 91.2997 28.7311C90.7801 28.5293 90.295 28.2479 89.8618 27.8971C89.448 27.544 89.1062 27.1144 88.8553 26.6317C88.5746 26.0545 88.4366 25.4184 88.4527 24.7768C88.4291 23.947 88.633 23.1266 89.0422 22.4043C89.4273 21.7543 89.9561 21.2009 90.588 20.7867C91.2156 20.3661 91.9113 20.0572 92.6442 19.8736C93.3812 19.6806 94.1397 19.5816 94.9017 19.5788C96.0542 19.5776 97.1997 19.7596 98.2951 20.118C99.3409 20.4448 100.301 20.9998 101.106 21.7429L98.6546 24.784ZM128.11 25.9919C128.104 25.2873 127.849 24.6075 127.391 24.0723C127.095 23.7697 126.736 23.5362 126.34 23.3883C125.944 23.2404 125.519 23.1818 125.098 23.2167C124.639 23.2129 124.184 23.2908 123.753 23.4468C123.362 23.5899 122.999 23.8017 122.682 24.0723C122.387 24.3366 122.143 24.6535 121.963 25.0069C121.803 25.3136 121.703 25.6479 121.668 25.9919H128.11ZM132.747 28.0696V28.6808C132.759 28.8747 132.759 29.0692 132.747 29.2631H121.647C121.679 29.6739 121.81 30.071 122.028 30.4206C122.244 30.7716 122.525 31.0789 122.855 31.3265C123.199 31.5842 123.583 31.7857 123.991 31.9232C124.409 32.067 124.849 32.1399 125.292 32.1389C125.994 32.1594 126.69 32.0062 127.319 31.6932C127.849 31.4162 128.308 31.0229 128.664 30.5428L132.165 32.75C131.435 33.7906 130.443 34.6191 129.289 35.1513C128.016 35.7246 126.631 36.007 125.234 35.9781C124.126 35.9846 123.025 35.8022 121.977 35.4389C120.989 35.1023 120.077 34.5719 119.296 33.8788C118.519 33.1776 117.904 32.3167 117.491 31.3553C117.032 30.274 116.806 29.1077 116.83 27.933C116.815 26.7729 117.032 25.6215 117.47 24.5468C117.873 23.582 118.467 22.7088 119.217 21.9801C119.971 21.2679 120.857 20.7109 121.826 20.3409C122.871 19.9433 123.98 19.7458 125.098 19.7586C126.157 19.7486 127.209 19.9414 128.196 20.3265C129.114 20.6887 129.942 21.2483 130.619 21.9657C131.316 22.7157 131.854 23.5984 132.201 24.5612C132.594 25.6834 132.786 26.8662 132.769 28.0553L132.747 28.0696ZM72.118 24.4749V19.852H67.8043V16.4226C67.6965 14.4455 66.7618 12.9716 62.9442 12.9716V30.7801C62.9407 31.4937 63.0326 32.2046 63.2174 32.8938C63.3804 33.4994 63.675 34.0616 64.0801 34.5402C64.514 35.0171 65.0602 35.3779 65.669 35.5899C66.5195 35.8605 67.4081 35.9916 68.3004 35.9781C69.6003 35.994 70.8928 35.7798 72.118 35.3455V31.2474C71.3002 31.4571 70.4603 31.5681 69.6161 31.5781C69.3532 31.6107 69.0864 31.5815 68.8368 31.4929C68.5872 31.4042 68.3617 31.2587 68.1782 31.0677C67.8907 30.6009 67.762 30.0536 67.8115 29.5076V24.4749H72.118Z" fill="#008FB4"/>
<path d="M112.487 27.4659L118.167 20.2763H112.157L107.124 26.6319V16.5665C107.031 14.4959 106.132 12.9718 102.257 12.9718V35.6332H107.124V28.3142L112.876 35.6332H118.951L112.487 27.4659ZM86.6338 35.6188V25.4815C86.6338 21.1175 83.1685 19.5502 80.0986 19.5502C77.6813 19.4296 75.3034 20.1966 73.4123 21.707L75.9502 24.8561C76.9721 23.9585 78.2491 23.4029 79.6025 23.2672C81.4502 23.2672 81.8312 24.324 81.8312 25.6757V25.9345H80.1704C75.8999 25.9345 73.3332 27.7822 73.3332 31.075C73.3332 34.6698 76.4966 35.6044 80.3502 35.6044L86.6338 35.6188ZM81.8312 32.4338H80.2352C78.9914 32.4338 78.2293 31.9162 78.2293 30.8449C78.2293 29.7737 78.9914 29.1554 80.5155 29.1554H81.8312V32.4338ZM45.215 15.7541C45.215 16.4978 45.5104 17.2109 46.0362 17.7368C46.562 18.2626 47.2752 18.558 48.0189 18.558C48.7625 18.558 49.4757 18.2626 50.0015 17.7368C50.5274 17.2109 50.8228 16.4978 50.8228 15.7541C50.8228 15.0105 50.5274 14.2973 50.0015 13.7714C49.4757 13.2456 48.7625 12.9502 48.0189 12.9502C47.2752 12.9502 46.562 13.2456 46.0362 13.7714C45.5104 14.2973 45.215 15.0105 45.215 15.7541ZM45.6895 19.8881H45.481V35.6332H50.5496V23.2025C50.4058 21.2901 49.428 19.8881 45.6895 19.8881ZM61.83 24.6044V20.0103C60.9385 20.0463 58.2352 20.4129 57.0417 21.8436V20.3267H52.0091V35.6332H57.0417V28.5227C57.0383 28.4821 57.0383 28.4412 57.0417 28.4005C57.7607 24.9927 61.0104 24.6332 61.8443 24.6044H61.83ZM142.274 33.3253H141.993V33.8574H142.274C142.31 33.8593 142.346 33.8539 142.38 33.8414C142.414 33.8289 142.445 33.8096 142.471 33.7847C142.497 33.7598 142.518 33.7298 142.532 33.6966C142.547 33.6633 142.554 33.6275 142.554 33.5913C142.554 33.5552 142.547 33.5194 142.532 33.4861C142.518 33.4529 142.497 33.4229 142.471 33.398C142.445 33.3731 142.414 33.3538 142.38 33.3413C142.346 33.3288 142.31 33.3234 142.274 33.3253ZM142.554 34.7992L142.209 34.0802H141.993V34.7992H141.677V33.0521H142.353C142.424 33.0502 142.496 33.0627 142.562 33.0891C142.629 33.1154 142.69 33.1549 142.741 33.2053C142.792 33.2556 142.832 33.3158 142.859 33.3821C142.887 33.4485 142.9 33.5196 142.899 33.5913C142.9 33.696 142.868 33.7982 142.807 33.8834C142.746 33.9686 142.66 34.0325 142.561 34.0658L142.942 34.7848L142.554 34.7992ZM142.223 32.6423C141.961 32.6294 141.7 32.6954 141.476 32.8319C141.251 32.9684 141.072 33.1691 140.963 33.4081C140.853 33.647 140.818 33.9134 140.861 34.1727C140.904 34.432 141.024 34.6725 141.205 34.863C141.386 35.0535 141.62 35.1854 141.877 35.2416C142.134 35.2979 142.402 35.2759 142.646 35.1785C142.89 35.0811 143.1 34.9128 143.247 34.6952C143.395 34.4777 143.474 34.2209 143.474 33.958C143.479 33.7893 143.45 33.6214 143.39 33.4638C143.33 33.3063 143.239 33.1622 143.122 33.0399C143.006 32.9176 142.867 32.8196 142.713 32.7513C142.558 32.6831 142.392 32.646 142.223 32.6423ZM142.223 35.5756C141.903 35.5856 141.586 35.4999 141.314 35.3296C141.043 35.1593 140.827 34.912 140.696 34.6191C140.566 34.3262 140.525 34.001 140.579 33.6848C140.633 33.3687 140.78 33.0758 141.002 32.8434C141.223 32.6111 141.508 32.4497 141.821 32.3799C142.134 32.3101 142.461 32.335 142.76 32.4513C143.059 32.5677 143.317 32.7704 143.5 33.0336C143.684 33.2967 143.785 33.6085 143.791 33.9292C143.796 34.3513 143.635 34.7585 143.341 35.0617C143.047 35.3649 142.645 35.5393 142.223 35.5469V35.5756ZM31.332 26.7541L33.5823 20.2835L35.8326 26.7541H31.332ZM35.9477 12.9718H31.4254L24.4444 31.4201H21.698C19.8256 31.4994 17.9703 31.035 16.3562 30.0828C15.7128 29.67 15.1907 29.0937 14.8433 28.4128C14.4959 27.7319 14.3357 26.9709 14.3791 26.2077V24.0508H12.1503C10.0772 23.994 8.09193 23.2014 6.54966 21.8149C5.34474 20.5511 4.58714 18.9273 4.3928 17.192H20.0157C22.8555 17.192 23.9052 18.5796 24.5594 19.8234C24.8809 20.4472 25.1224 21.1091 25.2784 21.7933L27.2555 16.5665C27.2555 16.5665 25.6019 12.9718 20.0157 12.9718H0V15.1286C0 19.1979 1.20784 22.4619 3.59477 24.8057C5.46844 26.5789 7.8388 27.7377 10.3889 28.1273C11.2876 32.743 15.5294 35.6188 21.698 35.6188H28.1111L29.549 31.4632H37.5797L39.0176 35.6116H44.5032L35.9477 12.9718Z" fill="#008FB4"/>
</svg>
