<svg width="127" height="49" viewBox="0 0 127 49" fill="none" xmlns="http://www.w3.org/2000/svg">
<path fill-rule="evenodd" clip-rule="evenodd" d="M122.957 32.9608C123.033 33.8303 123.728 34.9371 124.934 34.9371H125.638C125.912 34.9371 126.136 34.7132 126.136 34.4396V18.9339H126.133C126.119 18.6727 125.903 18.4635 125.638 18.4635H123.454C123.19 18.4635 122.974 18.6727 122.96 18.9339H122.957V20.1938C121.618 18.5439 119.508 17.8591 117.392 17.8591C112.581 17.8591 108.682 21.7616 108.682 26.5758C108.682 31.3903 112.581 35.2928 117.392 35.2928C119.508 35.2928 121.815 34.4716 122.957 32.9588V32.9608ZM117.4 32.2421C114.341 32.2421 111.861 29.7054 111.861 26.5758C111.861 23.4467 114.341 20.9099 117.4 20.9099C120.46 20.9099 122.94 23.4467 122.94 26.5758C122.94 29.7054 120.46 32.2421 117.4 32.2421Z" fill="#0D0E10"/>
<path fill-rule="evenodd" clip-rule="evenodd" d="M105.919 25.4705C105.919 20.9477 103.068 17.8965 98.522 17.8965C96.3516 17.8965 94.5725 19.1525 93.9441 20.2313C93.8083 19.3877 93.3608 18.501 91.973 18.501H91.2656C90.992 18.501 90.7686 18.7251 90.7686 18.9987V32.9996C90.7686 33 90.7686 33.0011 90.7686 33.0017V34.5057H90.7713C90.7856 34.7665 91.0016 34.9759 91.2658 34.9759H93.4505C93.4839 34.9759 93.5167 34.972 93.5484 34.9658C93.5629 34.963 93.5763 34.9573 93.5904 34.9533C93.6066 34.9483 93.6236 34.9445 93.639 34.9381C93.6584 34.93 93.6761 34.9192 93.6941 34.9091C93.703 34.9037 93.7123 34.8999 93.7208 34.8942C93.7426 34.8801 93.7626 34.8632 93.782 34.8459C93.7851 34.8428 93.7889 34.8406 93.7921 34.8376C93.8138 34.8166 93.8337 34.7934 93.8512 34.7693C93.9058 34.6942 93.9392 34.6033 93.9447 34.5057H93.9475V25.3461C93.9475 22.917 95.9154 20.9477 98.3428 20.9477C100.77 20.9477 102.738 22.917 102.738 25.3461L102.74 33.0023L102.74 32.9996C102.74 33.0064 102.742 33.0133 102.742 33.0206V34.5057H102.744C102.759 34.7665 102.975 34.9759 103.239 34.9759H105.424C105.457 34.9759 105.49 34.972 105.521 34.9658C105.534 34.9634 105.546 34.9582 105.559 34.9547C105.577 34.9495 105.595 34.945 105.612 34.9381C105.63 34.9307 105.647 34.9204 105.663 34.9108C105.674 34.905 105.685 34.9008 105.694 34.8942C105.715 34.8809 105.733 34.8649 105.751 34.8491C105.756 34.8448 105.761 34.8416 105.765 34.8373C105.786 34.8173 105.805 34.7957 105.821 34.7731C105.823 34.7714 105.824 34.77 105.825 34.7683C105.879 34.6939 105.912 34.604 105.918 34.507C105.918 34.5063 105.918 34.5057 105.918 34.5057H105.921L105.919 25.4705Z" fill="#0D0E10"/>
<path fill-rule="evenodd" clip-rule="evenodd" d="M83.1678 32.9607C83.2442 33.8303 83.9398 34.9371 85.1448 34.9371H85.8498C86.1231 34.9371 86.3468 34.7131 86.3468 34.4396V18.9339H86.344C86.3298 18.6727 86.1136 18.4635 85.8498 18.4635H83.6651C83.4009 18.4635 83.1851 18.6727 83.1703 18.9339H83.1678V20.1938C81.8292 18.5439 79.7189 17.8591 77.6026 17.8591C72.7924 17.8591 68.8931 21.7616 68.8931 26.5758C68.8931 31.3903 72.7924 35.2929 77.6026 35.2929C79.7189 35.2929 82.0252 34.4716 83.1676 32.9588L83.1678 32.9607ZM77.6111 32.2421C74.552 32.2421 72.0718 29.7055 72.0718 26.5758C72.0718 23.4467 74.552 20.9099 77.6111 20.9099C80.6706 20.9099 83.1503 23.4467 83.1503 26.5758C83.1503 29.7055 80.6706 32.2421 77.6111 32.2421Z" fill="#0D0E10"/>
<path fill-rule="evenodd" clip-rule="evenodd" d="M55.9739 30.74C57.4323 31.7512 59.0242 32.2423 60.554 32.2423C62.0114 32.2423 63.5181 31.4862 63.5181 30.17C63.5181 28.413 60.235 28.1396 58.1723 27.438C56.1091 26.7364 54.3322 25.286 54.3322 22.9372C54.3322 19.3433 57.5321 17.8589 60.5187 17.8589C62.4109 17.8589 64.3633 18.4834 65.6291 19.3779C66.065 19.7085 65.7996 20.088 65.7996 20.088L64.5913 21.8151C64.4555 22.0096 64.218 22.1777 63.8772 21.9671C63.5363 21.7567 62.3407 20.9098 60.5187 20.9098C58.6964 20.9098 57.5988 21.7519 57.5988 22.7958C57.5988 24.0475 59.0254 24.4412 60.6963 24.8678C63.6082 25.6533 66.7847 26.5975 66.7847 30.17C66.7847 33.3366 63.825 35.2935 60.554 35.2935C58.0752 35.2935 55.9648 34.5864 54.1948 33.2865C53.826 32.9172 54.0835 32.5742 54.0835 32.5742L55.2859 30.8559C55.5306 30.5347 55.839 30.6467 55.9739 30.74Z" fill="#0D0E10"/>
<path fill-rule="evenodd" clip-rule="evenodd" d="M47.5752 32.9607C47.6515 33.8303 48.3471 34.9371 49.552 34.9371H50.2571C50.5304 34.9371 50.7544 34.7131 50.7544 34.4396V18.9339H50.7513C50.737 18.6727 50.5212 18.4635 50.2571 18.4635H48.0725C47.8083 18.4635 47.5925 18.6727 47.5778 18.9339H47.5752V20.1938C46.2367 18.5439 44.1263 17.8591 42.0101 17.8591C37.1998 17.8591 33.3003 21.7616 33.3003 26.5758C33.3003 31.3903 37.1998 35.2929 42.0101 35.2929C44.1263 35.2929 46.4326 34.4716 47.5748 32.9588L47.5752 32.9607ZM42.0186 32.2421C38.9593 32.2421 36.4792 29.7055 36.4792 26.5758C36.4792 23.4467 38.9593 20.9099 42.0186 20.9099C45.0778 20.9099 47.5577 23.4467 47.5577 26.5758C47.5577 29.7055 45.0778 32.2421 42.0186 32.2421Z" fill="#0D0E10"/>
<path fill-rule="evenodd" clip-rule="evenodd" d="M21.0895 27.1685C17.8525 27.1685 15.2282 29.7927 15.2282 33.0301C15.2282 36.2673 17.8525 38.8915 21.0895 38.8915C24.3267 38.8915 26.9509 36.2673 26.9509 33.0301C26.9509 29.7927 24.3267 27.1685 21.0895 27.1685ZM5.86134 27.1691C2.62424 27.1691 0 29.7927 0 33.0301C0 36.2673 2.62424 38.8915 5.86134 38.8915C9.09858 38.8915 11.723 36.2673 11.723 33.0301C11.723 29.7927 9.09858 27.1691 5.86134 27.1691ZM19.3367 19.8417C19.3367 23.0791 16.7126 25.7035 13.4755 25.7035C10.2382 25.7035 7.61414 23.0791 7.61414 19.8417C7.61414 16.605 10.2382 13.9805 13.4755 13.9805C16.7126 13.9805 19.3367 16.605 19.3367 19.8417Z" fill="#F06A6A"/>
</svg>
