<svg width="171" height="49" viewBox="0 0 171 49" fill="none" xmlns="http://www.w3.org/2000/svg">
<path fill-rule="evenodd" clip-rule="evenodd" d="M63.5318 22.8098L60.4271 22.1363C58.8736 21.7995 58.0183 20.8413 58.0183 19.4372C58.0183 17.6526 59.6027 16.3064 61.7041 16.3064C64.6119 16.3064 65.4705 18.4457 65.665 19.1023C65.7267 19.3205 65.8785 19.5055 66.0825 19.6075C66.2817 19.7094 66.5046 19.7246 66.7181 19.6501L68.3546 19.0728C68.5511 19.0031 68.7135 18.8609 68.8087 18.6754C68.904 18.4899 68.9248 18.2751 68.8669 18.0748C68.4448 16.5901 66.8936 13.1367 61.633 13.1367C57.7385 13.1367 54.4512 16.1157 54.4512 19.6426C54.4512 22.6737 56.4402 24.9127 59.7735 25.6385L62.7335 26.2836C64.5152 26.6583 65.5796 27.7446 65.5796 29.1867C65.5796 31.0272 64.0664 32.1704 61.6282 32.1704C58.7631 32.1704 57.3827 30.2919 57.0459 28.532C57.0246 28.4186 56.9794 28.3109 56.9134 28.2162C56.8474 28.1215 56.762 28.0419 56.6628 27.9827C56.5637 27.9235 56.4532 27.8861 56.3385 27.8728C56.2238 27.8596 56.1076 27.8708 55.9976 27.9059L54.1998 28.4799C54.0108 28.5374 53.8497 28.6627 53.7473 28.8316C53.6449 29.0005 53.6084 29.2012 53.6448 29.3954C54.2045 32.3127 56.6014 35.4245 61.6614 35.4245C65.9373 35.4245 69.162 32.64 69.162 28.9495C69.162 25.8329 67.1052 23.594 63.5171 22.8018L63.5318 22.8098ZM81.8995 25.6479C81.909 25.7096 81.8805 25.757 81.8615 25.776C81.8458 25.7954 81.8259 25.8111 81.8034 25.8218C81.7808 25.8324 81.7561 25.8379 81.7311 25.8377H75.1375C75.1112 25.8377 75.0853 25.8317 75.0618 25.8202C75.0382 25.8087 75.0175 25.792 75.0013 25.7713C74.9863 25.7539 74.9755 25.7333 74.9697 25.7111C74.964 25.6889 74.9634 25.6657 74.9681 25.6432C75.2694 24.2685 76.4481 22.8824 78.4025 22.8824C80.3222 22.8824 81.6281 23.9118 81.8962 25.6399L81.8995 25.6479ZM78.3769 19.8038C74.9046 19.8038 71.3137 22.7069 71.3137 27.5691C71.3137 29.9124 72.0821 31.9142 73.5384 33.3515C74.8875 34.6845 76.7309 35.4197 78.7279 35.4197C81.7021 35.4197 84.1119 33.8657 85.1745 31.2644C85.2598 31.0509 85.2551 30.8137 85.1631 30.605C85.1177 30.5037 85.0519 30.4129 84.9699 30.3381C84.8879 30.2634 84.7914 30.2063 84.6863 30.1705L83.2348 29.6677C83.0406 29.6009 82.8283 29.6099 82.6404 29.6929C82.4525 29.7758 82.3027 29.9265 82.2211 30.115C81.5949 31.5902 80.4185 32.335 78.7251 32.335C76.6758 32.335 75.1152 30.9546 74.8448 28.8992C74.8414 28.8762 74.8433 28.8527 74.8502 28.8305C74.8572 28.8083 74.8692 28.788 74.8851 28.7711C74.9041 28.7474 74.9468 28.7095 75.0132 28.7095H84.6351C85.0668 28.7095 85.4273 28.3727 85.451 27.9429C85.4605 27.8053 85.4652 27.6535 85.4652 27.5036C85.4652 22.7506 82.7472 19.7986 78.3736 19.7986L78.3769 19.8038ZM94.7612 31.3402C92.4511 31.3402 91.0138 29.7369 91.0138 27.1564C91.0138 24.6138 92.4843 22.9707 94.7612 22.9707C96.967 22.9707 98.4489 24.6499 98.4489 27.1545C98.4489 29.6563 96.9661 31.3384 94.7608 31.3384L94.7612 31.3402ZM100.918 20.2402H99.1775C98.7269 20.2402 98.3593 20.6069 98.3593 21.0799C98.3591 21.1133 98.3491 21.146 98.3306 21.1738C98.312 21.2016 98.2857 21.2234 98.2549 21.2364C98.2217 21.2506 98.1553 21.2696 98.0955 21.2127C97.199 20.393 95.9372 19.977 94.3481 19.977C90.4095 19.977 87.5505 22.9986 87.5505 27.1588C87.5505 31.3009 90.4095 34.3074 94.3481 34.3074C95.8044 34.3074 97.1231 33.8292 98.0623 32.9611C98.124 32.9042 98.1904 32.9184 98.2236 32.9327C98.2473 32.9422 98.328 32.9849 98.328 33.0892V33.6869C98.328 36.5805 97.0614 37.93 94.3481 37.93C92.6262 37.93 91.2742 36.8627 90.909 35.2129C90.8615 34.9995 90.7335 34.8192 90.5485 34.7039C90.3635 34.5887 90.1405 34.5521 89.9271 34.5996L88.2175 34.9933C88.0075 35.0432 87.8256 35.1736 87.7108 35.3564C87.596 35.5391 87.5575 35.7596 87.6036 35.9705C88.2156 38.9684 90.927 40.9844 94.3443 40.9844C96.8916 40.9844 98.8317 40.2089 100.112 38.6791C101.17 37.4144 101.73 35.6588 101.73 33.602V21.0708C101.73 20.6202 101.365 20.255 100.914 20.255L100.918 20.2402ZM121.615 19.8304C119.689 19.8304 118.122 20.5571 117.083 21.9366C117.065 21.9621 117.041 21.9827 117.013 21.9963C116.986 22.0099 116.955 22.0161 116.924 22.0143C116.901 22.0146 116.878 22.0088 116.858 21.9976C116.838 21.9864 116.822 21.97 116.81 21.9503C115.939 20.6031 114.434 19.8299 112.683 19.8299C111.29 19.8299 109.951 20.3195 109.008 21.1747C108.985 21.1985 108.955 21.2145 108.923 21.2205C108.891 21.2264 108.857 21.222 108.827 21.2079C108.798 21.196 108.774 21.1754 108.757 21.1489C108.74 21.1224 108.731 21.0914 108.733 21.0599C108.733 20.6093 108.365 20.244 107.915 20.244H106.261C105.81 20.244 105.445 20.6093 105.445 21.0599V34.1665C105.445 34.6171 105.812 34.9833 106.263 34.9833H108.004C108.455 34.9833 108.82 34.6152 108.82 34.1646V26.175C108.82 24.2334 110.006 22.9284 111.775 22.9284C114.09 22.9284 114.436 24.7438 114.436 25.8254V34.1788C114.436 34.6295 114.801 34.9947 115.252 34.9947H117.023C117.474 34.9947 117.839 34.6276 117.839 34.1769V26.1465C117.839 24.251 119.044 22.9275 120.766 22.9275C123.082 22.9275 123.427 24.7443 123.427 25.8258V34.1793C123.427 34.6299 123.792 34.9952 124.243 34.9952H125.984C126.434 34.9952 126.799 34.628 126.799 34.1774V25.5298C126.799 21.6021 124.195 19.8456 121.615 19.8456V19.8304ZM133.384 25.8491C133.357 25.849 133.332 25.8431 133.308 25.8317C133.285 25.8204 133.264 25.804 133.247 25.7836C133.233 25.7663 133.223 25.746 133.217 25.7241C133.212 25.7023 133.211 25.6795 133.216 25.6574C133.518 24.2818 134.696 22.8967 136.652 22.8967C138.572 22.8967 139.878 23.926 140.146 25.6527C140.155 25.7143 140.125 25.7618 140.108 25.7808C140.091 25.7984 140.07 25.8125 140.048 25.8223C140.026 25.8321 140.002 25.8373 139.977 25.8377H133.384V25.8491ZM136.623 19.8152C133.151 19.8152 129.56 22.7202 129.56 27.5805C129.56 29.9267 130.329 31.927 131.783 33.3658C133.13 34.6987 134.971 35.4292 136.973 35.4292C139.942 35.4292 142.352 33.8733 143.419 31.2691C143.504 31.0556 143.5 30.8185 143.405 30.6097C143.31 30.401 143.139 30.2492 142.926 30.1733L141.474 29.6715C141.071 29.5325 140.625 29.7284 140.46 30.1183C139.834 31.5898 138.657 32.3383 136.964 32.3383C134.915 32.3383 133.354 30.9551 133.084 28.8992C133.08 28.8759 133.082 28.8521 133.088 28.8295C133.095 28.8069 133.106 28.786 133.122 28.7683C133.141 28.7446 133.183 28.709 133.25 28.709H142.875C143.306 28.709 143.665 28.3722 143.69 27.9419C143.698 27.8044 143.705 27.6526 143.705 27.5008C143.705 22.7477 140.987 19.7925 136.613 19.7925L136.623 19.8152ZM154.066 19.8451C152.593 19.8451 151.302 20.347 150.332 21.2966C150.31 21.319 150.282 21.3342 150.251 21.3401C150.22 21.346 150.188 21.3424 150.159 21.3298C150.129 21.3168 150.104 21.2953 150.086 21.268C150.068 21.2407 150.059 21.2087 150.059 21.1762V21.0718C150.059 20.6212 149.692 20.2559 149.241 20.2559H147.534C147.083 20.2559 146.716 20.6212 146.716 21.0718V34.176C146.716 34.6266 147.081 34.9933 147.532 34.9933H149.301C149.752 34.9933 150.119 34.6257 150.119 34.175V26.525C150.119 24.8135 150.895 22.9844 153.075 22.9844C155.034 22.9844 156.028 24.0674 156.028 26.2029V34.1722C156.028 34.6228 156.393 34.9881 156.844 34.9881H158.613C159.064 34.9881 159.43 34.6181 159.43 34.1674V25.7338C159.43 22.1002 157.372 19.8423 154.065 19.8423L154.066 19.8451ZM167.674 23.3943H169.738C170.189 23.3943 170.554 23.0266 170.554 22.5765V21.0708C170.554 20.6202 170.189 20.255 169.738 20.255H167.674C167.653 20.255 167.631 20.2507 167.611 20.2423C167.591 20.234 167.573 20.2217 167.557 20.2063C167.542 20.1909 167.529 20.1726 167.521 20.1525C167.513 20.1323 167.508 20.1107 167.508 20.0889V16.6195C167.508 16.1688 167.14 15.8026 166.69 15.8026H165.153C164.703 15.8026 164.337 16.1688 164.337 16.6195V18.4125C164.337 19.2522 164.016 20.2545 162.493 20.2545H162.231C161.78 20.2545 161.415 20.6197 161.415 21.0704V22.5741C161.415 23.0247 161.782 23.39 162.231 23.39H163.943C164.036 23.39 164.109 23.4611 164.109 23.556V30.7995C164.109 33.4749 165.739 35.1351 168.359 35.1351C169.09 35.1351 169.658 35.0308 169.932 34.9691C170.302 34.8837 170.562 34.5564 170.562 34.1722V32.778C170.562 32.6633 170.538 32.55 170.491 32.4453C170.444 32.3405 170.376 32.2468 170.29 32.1702C170.205 32.0936 170.104 32.0358 169.995 32.0005C169.886 31.9652 169.771 31.9533 169.657 31.9655C169.472 31.9844 169.293 31.9953 169.152 31.9953C167.961 31.9953 167.516 31.5589 167.516 30.3873V23.5565C167.516 23.4654 167.591 23.3914 167.682 23.3914" fill="#43AF79"/>
<path fill-rule="evenodd" clip-rule="evenodd" d="M19.757 41.9805C17.9051 41.9805 16.0759 41.7054 14.3208 41.1613C13.8402 41.0124 13.4384 40.6787 13.2038 40.2335C12.9693 39.7884 12.9211 39.2683 13.0699 38.7876C13.3802 37.782 14.4456 37.2223 15.4441 37.5353C16.8349 37.967 18.2855 38.1852 19.757 38.1852C26.1954 38.1852 31.7858 34.0535 33.6685 27.9011C33.7414 27.6629 33.8605 27.4413 34.019 27.2492C34.1776 27.057 34.3725 26.898 34.5926 26.7813C34.8126 26.6645 35.0536 26.5923 35.3016 26.5688C35.5496 26.5452 35.7998 26.5708 36.0379 26.644C37.0398 26.9476 37.6033 28.0102 37.2969 29.0111C34.9232 36.7673 27.8742 41.9805 19.757 41.9805Z" fill="#43AF79"/>
<path fill-rule="evenodd" clip-rule="evenodd" d="M4.03197 20.7179C3.73521 20.7179 3.44257 20.6484 3.17758 20.5148C2.91258 20.3812 2.68261 20.1873 2.50615 19.9487C2.32969 19.7101 2.21166 19.4334 2.16154 19.1409C2.11141 18.8484 2.1306 18.5482 2.21755 18.2645C4.59172 10.5087 11.6407 5.29932 19.757 5.29932C21.6103 5.29932 23.4394 5.57444 25.1931 6.11901C25.4312 6.19275 25.6523 6.31266 25.844 6.47189C26.0357 6.63111 26.1942 6.82654 26.3103 7.047C26.4265 7.26747 26.4981 7.50866 26.521 7.75679C26.5439 8.00493 26.5178 8.25515 26.444 8.49318C26.3705 8.73134 26.2507 8.95266 26.0915 9.14447C25.9323 9.33627 25.7369 9.49479 25.5163 9.61094C25.2958 9.72709 25.0545 9.7986 24.8063 9.82136C24.5581 9.84412 24.3078 9.81769 24.0698 9.74359C22.68 9.31666 21.2284 9.09846 19.757 9.09846C13.3199 9.09846 7.72865 13.2301 5.84592 19.3826C5.72693 19.7708 5.48659 20.1107 5.16019 20.3523C4.8338 20.5939 4.43854 20.7246 4.03245 20.725" fill="#43AF79"/>
<path fill-rule="evenodd" clip-rule="evenodd" d="M24.6316 30.3569H1.89744C0.849102 30.3569 0 29.5078 0 28.4595C0 27.4112 0.849102 26.5621 1.89744 26.5621H24.6316C25.6799 26.5621 26.529 27.4112 26.529 28.4595C26.529 29.5078 25.6799 30.3569 24.6316 30.3569Z" fill="#93C8A2"/>
<path fill-rule="evenodd" clip-rule="evenodd" d="M37.6167 20.7169H14.8835C13.8352 20.7169 12.9861 19.8678 12.9861 18.8195C12.9861 17.7712 13.8352 16.9221 14.8835 16.9221H37.6167C38.665 16.9221 39.5141 17.7712 39.5141 18.8195C39.5141 19.8678 38.665 20.7169 37.6167 20.7169Z" fill="#93C8A2"/>
<path fill-rule="evenodd" clip-rule="evenodd" d="M32.9167 11.5888C32.9167 12.0921 32.7168 12.5747 32.361 12.9305C32.0051 13.2864 31.5225 13.4863 31.0193 13.4863C30.5161 13.4863 30.0334 13.2864 29.6776 12.9305C29.3218 12.5747 29.1218 12.0921 29.1218 11.5888C29.1218 11.0856 29.3218 10.603 29.6776 10.2472C30.0334 9.89131 30.5161 9.69141 31.0193 9.69141C31.5225 9.69141 32.0051 9.89131 32.361 10.2472C32.7168 10.603 32.9167 11.0856 32.9167 11.5888ZM10.3918 35.6929C10.3918 36.1961 10.1919 36.6788 9.83604 37.0346C9.4802 37.3904 8.99758 37.5904 8.49435 37.5904C7.99111 37.5904 7.50849 37.3904 7.15266 37.0346C6.79682 36.6788 6.59691 36.1961 6.59691 35.6929C6.59691 35.1897 6.79682 34.7071 7.15266 34.3512C7.50849 33.9954 7.99111 33.7955 8.49435 33.7955C8.99758 33.7955 9.4802 33.9954 9.83604 34.3512C10.1919 34.7071 10.3918 35.1897 10.3918 35.6929Z" fill="#93C8A2"/>
</svg>
