<svg width="114" height="49" viewBox="0 0 114 49" fill="none" xmlns="http://www.w3.org/2000/svg">
<path d="M12.3085 14.0869V23.1746H3.96242V14.0869H0V35.7802H3.96242V26.9876H12.3085V35.7802H16.2709V14.0869H12.3085Z" fill="#33475B"/>
<path d="M28.9522 28.7674C28.9522 29.6368 28.6068 30.4706 27.9921 31.0853C27.3773 31.7001 26.5435 32.0454 25.6741 32.0454C24.8047 32.0454 23.971 31.7001 23.3562 31.0853C22.7414 30.4706 22.3961 29.6368 22.3961 28.7674V19.4758H18.6375V28.7674C18.6375 30.6318 19.3781 32.4199 20.6965 33.7382C22.0149 35.0566 23.8029 35.7972 25.6673 35.7972C27.5318 35.7972 29.3198 35.0566 30.6382 33.7382C31.9565 32.4199 32.6972 30.6318 32.6972 28.7674V19.4758H28.9522V28.7674Z" fill="#33475B"/>
<path d="M56.8007 20.4334C56.8007 18.5289 58.0606 17.9251 59.441 17.9251C60.5534 17.9251 62.0231 18.7716 62.9841 19.7986L65.4458 16.8981C64.2169 15.2362 61.7241 14.0869 59.6837 14.0869C55.6067 14.0869 52.6577 16.4749 52.6577 20.4334C52.6577 27.7777 61.6348 25.4481 61.6348 29.558C61.6348 30.8258 60.4039 31.9459 58.9945 31.9459C56.7715 31.9459 56.0513 30.8588 55.0301 29.7094L52.2985 32.5497C54.0458 34.695 56.2008 35.7841 58.7828 35.7841C62.656 35.7841 65.7719 33.3671 65.7719 29.5891C65.7719 21.4352 56.7948 23.9687 56.7948 20.4334" fill="#33475B"/>
<path d="M112.337 32.3146C110.116 32.3146 109.485 31.3536 109.485 29.882V23.3685H112.937V20.0682H109.485V15.7136L105.674 17.424V30.6915C105.674 34.0851 108.015 35.7955 111.226 35.7955C111.73 35.8047 112.233 35.7644 112.729 35.6751L113.659 32.2524C113.239 32.2816 112.758 32.3107 112.337 32.3107" fill="#33475B"/>
<path d="M43.2594 19.5853C41.3976 19.5853 40.0988 20.1251 38.8427 21.3579V14.2174H35.0783V27.4519C35.0783 32.4064 38.6602 35.8 42.6847 35.8C47.15 35.8 51.0774 32.3462 51.0774 27.6946C51.0774 23.1012 47.4625 19.5873 43.2594 19.5873V19.5853ZM43.2361 32.0123C42.3913 32.0123 41.5656 31.7618 40.8632 31.2925C40.1608 30.8232 39.6134 30.1561 39.2901 29.3757C38.9668 28.5952 38.8822 27.7365 39.0471 26.908C39.2119 26.0794 39.6186 25.3184 40.216 24.7211C40.8133 24.1238 41.5743 23.717 42.4028 23.5522C43.2313 23.3874 44.0901 23.472 44.8706 23.7952C45.651 24.1185 46.3181 24.6659 46.7874 25.3683C47.2567 26.0707 47.5072 26.8965 47.5072 27.7412C47.5072 28.874 47.0572 29.9603 46.2562 30.7613C45.4552 31.5623 44.3688 32.0123 43.2361 32.0123Z" fill="#33475B"/>
<path d="M84.1336 27.4957C84.1336 22.8364 80.2139 19.3904 75.7409 19.3904C71.7164 19.3904 68.1345 22.7839 68.1345 27.7384V40.9808H71.8989V33.8306C73.153 35.0614 74.4538 35.6031 76.3136 35.6031C80.5168 35.6031 84.1317 32.0911 84.1317 27.4957H84.1336ZM80.5692 27.4492C80.5692 28.2939 80.3187 29.1197 79.8494 29.822C79.3801 30.5244 78.713 31.0719 77.9326 31.3951C77.1521 31.7184 76.2934 31.803 75.4648 31.6382C74.6363 31.4734 73.8753 31.0666 73.278 30.4693C72.6806 29.872 72.2739 29.1109 72.1091 28.2824C71.9443 27.4539 72.0288 26.5951 72.3521 25.8147C72.6754 25.0342 73.2228 24.3672 73.9252 23.8979C74.6276 23.4285 75.4533 23.1781 76.2981 23.1781C77.4309 23.1781 78.5172 23.628 79.3182 24.429C80.1192 25.23 80.5692 26.3164 80.5692 27.4492Z" fill="#33475B"/>
<path d="M96.2568 19.3301V15.5871C96.7514 15.3561 97.1703 14.9892 97.4645 14.5293C97.7587 14.0694 97.9162 13.5354 97.9186 12.9895V12.9021C97.9166 12.1392 97.6126 11.408 97.0731 10.8685C96.5336 10.329 95.8025 10.0251 95.0395 10.023H94.9522C94.1892 10.0251 93.4581 10.329 92.9186 10.8685C92.3791 11.408 92.0751 12.1392 92.0731 12.9021V12.9895C92.0755 13.5354 92.233 14.0694 92.5272 14.5293C92.8214 14.9892 93.2402 15.3561 93.7349 15.5871V19.3301C92.3127 19.5476 90.9733 20.137 89.8521 21.0386L79.5743 13.0419C79.6474 12.7781 79.6866 12.506 79.6908 12.2323C79.6915 11.5899 79.5018 10.9617 79.1455 10.4272C78.7893 9.89264 78.2825 9.47574 77.6893 9.2292C77.0961 8.98265 76.4431 8.91755 75.8129 9.04212C75.1827 9.16669 74.6036 9.47534 74.1489 9.92904C73.6941 10.3827 73.3841 10.9611 73.258 11.591C73.1319 12.2209 73.1954 12.874 73.4406 13.4678C73.6857 14.0616 74.1014 14.5693 74.6351 14.9269C75.1688 15.2844 75.7965 15.4757 76.4389 15.4764C77.0032 15.4743 77.5569 15.3237 78.0444 15.0396L88.1495 22.9062C87.2393 24.2793 86.7645 25.8951 86.787 27.5423C86.8095 29.1896 87.3283 30.7918 88.2757 32.1395L85.2005 35.2147C84.9536 35.1361 84.6965 35.0943 84.4375 35.0905C83.9095 35.0905 83.3934 35.247 82.9544 35.5404C82.5155 35.8337 82.1733 36.2506 81.9713 36.7384C81.7692 37.2261 81.7164 37.7629 81.8194 38.2807C81.9224 38.7985 82.1766 39.2742 82.5499 39.6475C82.9233 40.0208 83.3989 40.2751 83.9167 40.3781C84.4345 40.4811 84.9713 40.4282 85.459 40.2261C85.9468 40.0241 86.3637 39.682 86.6571 39.243C86.9504 38.804 87.1069 38.2879 87.1069 37.7599C87.1034 37.5008 87.0615 37.2437 86.9827 36.9969L90.0249 33.9547C91.0179 34.7133 92.1712 35.2349 93.3966 35.4797C94.622 35.7246 95.8871 35.6863 97.0954 35.3676C98.3037 35.049 99.4232 34.4585 100.369 33.6412C101.314 32.8239 102.06 31.8014 102.55 30.6518C103.04 29.5022 103.26 28.2559 103.195 27.008C103.13 25.7601 102.78 24.5436 102.173 23.4513C101.566 22.3591 100.718 21.42 99.6921 20.7058C98.6668 19.9915 97.4917 19.521 96.2568 19.3301ZM94.9968 31.6425C94.1644 31.6425 93.3506 31.3957 92.6584 30.9332C91.9663 30.4707 91.4268 29.8134 91.1082 29.0443C90.7897 28.2752 90.7063 27.4289 90.8687 26.6124C91.0311 25.796 91.432 25.046 92.0206 24.4574C92.6093 23.8687 93.3592 23.4679 94.1757 23.3055C94.9922 23.1431 95.8384 23.2264 96.6075 23.545C97.3766 23.8635 98.034 24.403 98.4965 25.0952C98.9589 25.7873 99.2058 26.6011 99.2058 27.4336C99.2058 28.5498 98.7623 29.6204 97.973 30.4097C97.1837 31.1991 96.1131 31.6425 94.9968 31.6425Z" fill="#FF7A59"/>
</svg>
