<svg width="11" height="13" viewBox="0 0 11 13" fill="none" xmlns="http://www.w3.org/2000/svg">
<path d="M3.56262 2.18359H6.93762V1.24609C6.93762 0.941406 7.172 0.683594 7.50012 0.683594C7.80481 0.683594 8.06262 0.941406 8.06262 1.24609V2.18359H9.00012C9.82043 2.18359 10.5001 2.86328 10.5001 3.68359V11.1836C10.5001 12.0273 9.82043 12.6836 9.00012 12.6836H1.50012C0.656372 12.6836 0.00012207 12.0273 0.00012207 11.1836V3.68359C0.00012207 2.86328 0.656372 2.18359 1.50012 2.18359H2.43762V1.24609C2.43762 0.941406 2.672 0.683594 3.00012 0.683594C3.30481 0.683594 3.56262 0.941406 3.56262 1.24609V2.18359ZM1.12512 6.49609H3.00012V5.18359H1.12512V6.49609ZM1.12512 7.62109V9.12109H3.00012V7.62109H1.12512ZM4.12512 7.62109V9.12109H6.37512V7.62109H4.12512ZM7.50012 7.62109V9.12109H9.37512V7.62109H7.50012ZM9.37512 5.18359H7.50012V6.49609H9.37512V5.18359ZM9.37512 10.2461H7.50012V11.5586H9.00012C9.18762 11.5586 9.37512 11.3945 9.37512 11.1836V10.2461ZM6.37512 10.2461H4.12512V11.5586H6.37512V10.2461ZM3.00012 10.2461H1.12512V11.1836C1.12512 11.3945 1.28918 11.5586 1.50012 11.5586H3.00012V10.2461ZM6.37512 5.18359H4.12512V6.49609H6.37512V5.18359Z" fill="#2437AC"/>
</svg>
