<svg width="133" height="106" viewBox="0 0 133 106" fill="none" xmlns="http://www.w3.org/2000/svg">
<path d="M120.048 41.7341C119.028 40.4127 118.415 39.573 117.705 38.7888C116.995 38.0047 115.811 37.7334 115.099 38.5027C114.624 39.0155 114.46 40.0656 114.532 40.8593C114.657 41.7425 115.367 42.5267 116.039 43.6907C114.276 43.7532 113.129 43.102 111.893 42.7412C110.213 42.2787 109.242 42.6003 108.833 43.6721C108.425 44.7439 108.949 45.874 110.288 46.4139C113.263 47.5615 116.335 48.6535 119.354 49.656C121.382 50.2759 122.635 49.5527 123.208 47.4308C123.61 46.1242 123.716 44.7499 124.118 43.4434C124.863 40.506 125.608 37.5687 126.353 34.6314C126.711 33.47 126.535 32.4973 125.343 31.9913C124.3 31.5192 122.847 32.1189 122.342 33.2464C121.881 34.2287 121.569 35.2449 121.256 36.2611C120.913 37.8919 120.57 39.5226 120.048 41.7341Z" fill="#00B8FF"/>
<path d="M40.5258 60.4291C40.164 59.8023 40.0982 59.2434 39.795 58.9408C39.1958 58.5705 38.3522 58.2218 37.767 58.3209C37.2782 58.3644 36.6178 59.2232 36.5872 59.8378C36.378 61.0331 36.6129 62.3301 36.5588 63.794C35.9877 64.3625 35.2686 64.897 34.6528 65.6107C33.8444 66.4356 33.3837 67.4179 34.1521 68.5263C35.0169 69.5791 36.0391 69.347 36.9957 68.556C37.2847 68.3891 37.4774 68.2778 37.8111 67.9658C38.8545 68.4379 39.5853 69.9261 41.127 69.0361C43.0541 67.9235 41.6864 66.4447 41.7923 65.0704C42.3633 64.5019 42.9344 63.9334 43.5572 63.4544C44.4174 62.719 44.878 61.7367 44.2647 60.897C43.8582 60.4154 42.7772 60.3232 42.0369 60.1536C41.4447 60.018 41.111 60.33 40.5258 60.4291Z" fill="#00B8FF"/>
<path d="M51.4674 33.0976C50.8657 34.2807 50.257 35.2291 51.07 36.1923C51.8831 37.1555 52.9054 36.9235 54.0616 36.2559C57.0486 34.5314 60.0873 32.8964 63.0743 31.1718C64.1342 30.5599 65.046 29.9141 64.663 28.5831C64.4352 27.5209 63.044 26.8914 61.7397 27.5251C58.2639 29.293 54.8915 31.2401 51.4674 33.0976Z" fill="#00B8FF"/>
<path d="M23.3674 86.3321C22.2483 85.3067 20.5029 85.4787 20.1776 86.7411C19.5314 89.5018 19.1392 92.4742 18.9447 95.3324C18.9538 95.8047 20.0683 96.5939 20.7692 96.6668C21.724 96.9512 22.4067 96.0795 22.6378 95.1104C23.0908 92.6999 23.445 90.3464 23.7475 87.9034C23.7855 87.2845 23.4237 86.6577 23.3674 86.3321Z" fill="#00B8FF"/>
<path d="M80.52 22.8889C79.9795 22.8428 79.0395 22.5498 78.2616 22.7602C75.9726 23.246 73.7354 23.8213 71.4981 24.3967C70.4758 24.6288 69.8601 25.3424 69.9399 26.3708C70.0715 27.4887 70.8775 28.2172 71.8998 27.9852C74.6776 27.4559 77.4553 26.9267 80.078 26.1288C81.4857 25.6742 81.6808 24.0095 80.52 22.8889Z" fill="#00B8FF"/>
<path d="M44.574 43.4049C43.4648 42.3738 41.9467 42.4146 41.4414 43.5421C40.3414 46.0873 39.3966 48.9012 38.5927 51.5143C38.2801 52.5305 39.0415 53.4042 40.1742 53.5859C41.3069 53.7676 42.019 52.9983 42.3316 51.9821C43.0532 49.8941 43.8264 47.8956 44.4516 45.8633C44.8159 44.9366 44.6397 43.9639 44.574 43.4049Z" fill="#00B8FF"/>
<path d="M42.3895 71.8867C42.2414 71.8528 41.3014 71.5598 40.7233 71.8936C40.1452 72.2274 39.5435 73.4104 39.661 74.0589C40.3823 76.8659 41.9708 79.1723 44.6121 80.6319C45.5592 81.1597 46.5885 81.1623 47.3453 80.2479C48.1984 79.2778 47.7331 78.4719 47.0234 77.6878C45.6488 75.9743 44.2224 74.1713 42.3895 71.8867Z" fill="#00B8FF"/>
<path d="M111.3 31.0274C110.101 30.2867 108.304 29.1757 106.365 28.2654C105.47 27.8272 104.344 27.8802 103.639 28.8842C102.889 30.0334 103.406 30.9288 104.308 31.6017C105.81 32.6449 107.356 33.543 108.858 34.5862C110.36 35.6294 111.492 35.8112 112.249 34.8967C113.154 34.0161 112.867 32.6296 111.3 31.0274Z" fill="#00B8FF"/>
<path d="M59.6074 83.9134C60.6086 82.9772 60.4112 81.3004 59.1305 81.0847C56.5173 80.5639 53.9111 80.2777 51.2603 80.1368C50.7198 80.0907 49.8079 80.7365 49.6739 81.172C49.4953 81.7527 49.6715 82.7255 50.1744 83.1514C51.394 84.5963 57.1468 85.2146 58.9329 84.3028C59.1773 84.2811 59.4147 84.0247 59.6074 83.9134Z" fill="#00B8FF"/>
<path d="M68.1417 59.5249C67.2087 59.4666 66.3651 59.1179 65.7869 59.4517C65.2088 59.7855 64.5037 60.7895 64.6659 61.2928C65.3731 63.6304 66.2284 66.0019 67.2247 68.1726C67.4832 68.6203 68.6676 68.8916 69.2528 68.7925C69.7862 68.6039 70.5876 67.5443 70.5736 67.0748C69.8593 64.5026 69.004 62.1311 68.1417 59.5249Z" fill="#00B8FF"/>
<path d="M95.9582 27.8269C96.8043 26.622 96.7762 25.6832 95.8738 25.0103C95.2746 24.64 94.4826 24.3809 93.7424 24.2113C92.2619 23.8722 90.5886 23.6444 89.1081 23.3053C88.0718 23.0679 87.2939 23.2782 86.7816 24.171C86.1282 25.2645 86.5935 26.0704 87.4441 26.6537C87.8436 26.9006 88.2431 27.1475 88.6873 27.2493C90.4122 27.5666 92.1888 27.9736 93.9584 28.1458C94.5506 28.2814 95.3731 27.9259 95.9582 27.8269Z" fill="#00B8FF"/>
<path d="M25.9451 74.3375C25.1578 75.8665 24.126 77.4173 23.5384 79.0698C23.0778 80.0521 23.4984 81.0031 24.5864 81.33C25.6745 81.6569 26.3936 81.1223 27.0987 80.1183C27.8931 78.824 28.7908 77.7087 29.7333 76.4483C30.49 75.5338 30.9507 74.5515 30.1376 73.5883C29.4279 72.8042 28.1542 72.8232 26.9087 73.7811C26.6196 73.948 26.4786 74.1488 26.2412 74.4053C26.1449 74.4609 25.9968 74.427 25.9451 74.3375Z" fill="#00B8FF"/>
<path d="M58.0392 56.0448C57.2472 55.7857 56.6997 55.5049 56.1592 55.4588C54.5894 55.4101 53.0195 55.3613 51.4497 55.3125C50.324 55.3655 49.3088 55.8323 49.344 57.0058C49.3651 57.71 50.0818 58.7288 50.674 58.8645C52.6433 59.1601 54.7537 59.255 56.857 59.1151C57.3458 59.0717 58.0579 58.3024 58.2882 57.8113C58.4668 57.2306 58.105 56.6038 58.0392 56.0448Z" fill="#00B8FF"/>
<path d="M68.3786 78.8498C68.891 77.957 69.73 76.5175 70.3693 74.9545C70.8746 73.8271 70.4023 72.7865 69.1662 72.4257C68.0782 72.0988 67.3661 72.8681 66.7573 73.8164C66.0076 74.9656 65.3096 76.2043 64.5082 77.264C63.7068 78.3236 62.95 79.2381 63.9628 80.3247C64.7242 81.1984 66.0872 80.889 67.3774 79.7859C67.6148 79.5295 67.7112 79.4739 68.3786 78.8498Z" fill="#00B8FF"/>
</svg>
