<svg width="61" height="22" viewBox="0 0 61 22" fill="none" xmlns="http://www.w3.org/2000/svg">
<path d="M0.858 16.9414V14.1914H1.804C2.508 14.1914 3.06533 13.9934 3.476 13.5974C3.90133 13.1867 4.114 12.6441 4.114 11.9694V0.551405H7.128V11.8594C7.128 12.8714 6.908 13.7587 6.468 14.5214C6.04267 15.2841 5.42667 15.8781 4.62 16.3034C3.828 16.7287 2.88933 16.9414 1.804 16.9414H0.858ZM13.6087 17.2054C12.7727 17.2054 12.0467 17.0661 11.4307 16.7874C10.8147 16.5087 10.3381 16.1127 10.0007 15.5994C9.66339 15.0714 9.49472 14.4627 9.49472 13.7734C9.49472 13.1134 9.64139 12.5267 9.93472 12.0134C10.2281 11.4854 10.6827 11.0454 11.2987 10.6934C11.9147 10.3414 12.6921 10.0921 13.6307 9.94541L17.5467 9.30741V11.5074L14.1807 12.0794C13.6087 12.1821 13.1834 12.3654 12.9047 12.6294C12.6261 12.8934 12.4867 13.2381 12.4867 13.6634C12.4867 14.0741 12.6407 14.4041 12.9487 14.6534C13.2714 14.8881 13.6674 15.0054 14.1367 15.0054C14.7381 15.0054 15.2661 14.8807 15.7207 14.6314C16.1901 14.3674 16.5494 14.0081 16.7987 13.5534C17.0627 13.0987 17.1947 12.6001 17.1947 12.0574V8.97741C17.1947 8.46407 16.9894 8.03874 16.5787 7.70141C16.1827 7.34941 15.6547 7.17341 14.9947 7.17341C14.3787 7.17341 13.8287 7.34207 13.3447 7.67941C12.8754 8.00207 12.5307 8.43474 12.3107 8.97741L9.95672 7.83341C10.1914 7.20274 10.5581 6.66007 11.0567 6.20541C11.5701 5.73607 12.1714 5.36941 12.8607 5.10541C13.5501 4.84141 14.2981 4.70941 15.1047 4.70941C16.0874 4.70941 16.9527 4.89274 17.7007 5.25941C18.4487 5.61141 19.0281 6.11007 19.4387 6.75541C19.8641 7.38607 20.0767 8.12674 20.0767 8.97741V16.9414H17.3487V14.8954L17.9647 14.8514C17.6567 15.3647 17.2901 15.7974 16.8647 16.1494C16.4394 16.4867 15.9554 16.7507 15.4127 16.9414C14.8701 17.1174 14.2687 17.2054 13.6087 17.2054ZM22.7404 21.3414V4.97341H25.4464V7.34941L25.1824 6.75541C25.5931 6.11007 26.1504 5.61141 26.8544 5.25941C27.5584 4.89274 28.3724 4.70941 29.2964 4.70941C30.4258 4.70941 31.4451 4.98807 32.3544 5.54541C33.2638 6.10274 33.9824 6.85074 34.5104 7.78941C35.0531 8.72807 35.3244 9.78407 35.3244 10.9574C35.3244 12.1161 35.0604 13.1721 34.5324 14.1254C34.0044 15.0787 33.2858 15.8341 32.3764 16.3914C31.4671 16.9341 30.4331 17.2054 29.2744 17.2054C28.4091 17.2054 27.6098 17.0367 26.8764 16.6994C26.1578 16.3474 25.5858 15.8487 25.1604 15.2034L25.6224 14.6314V21.3414H22.7404ZM28.9444 14.5654C29.6044 14.5654 30.1911 14.4114 30.7044 14.1034C31.2178 13.7954 31.6138 13.3701 31.8924 12.8274C32.1858 12.2847 32.3324 11.6614 32.3324 10.9574C32.3324 10.2534 32.1858 9.63741 31.8924 9.10941C31.6138 8.56674 31.2178 8.14141 30.7044 7.83341C30.1911 7.51074 29.6044 7.34941 28.9444 7.34941C28.3138 7.34941 27.7418 7.50341 27.2284 7.81141C26.7298 8.11941 26.3338 8.55207 26.0404 9.10941C25.7618 9.65207 25.6224 10.2681 25.6224 10.9574C25.6224 11.6614 25.7618 12.2847 26.0404 12.8274C26.3338 13.3701 26.7298 13.7954 27.2284 14.1034C27.7418 14.4114 28.3138 14.5654 28.9444 14.5654ZM41.1517 17.2054C40.3157 17.2054 39.5897 17.0661 38.9737 16.7874C38.3577 16.5087 37.881 16.1127 37.5437 15.5994C37.2064 15.0714 37.0377 14.4627 37.0377 13.7734C37.0377 13.1134 37.1844 12.5267 37.4777 12.0134C37.771 11.4854 38.2257 11.0454 38.8417 10.6934C39.4577 10.3414 40.235 10.0921 41.1737 9.94541L45.0897 9.30741V11.5074L41.7237 12.0794C41.1517 12.1821 40.7264 12.3654 40.4477 12.6294C40.169 12.8934 40.0297 13.2381 40.0297 13.6634C40.0297 14.0741 40.1837 14.4041 40.4917 14.6534C40.8144 14.8881 41.2104 15.0054 41.6797 15.0054C42.281 15.0054 42.809 14.8807 43.2637 14.6314C43.733 14.3674 44.0924 14.0081 44.3417 13.5534C44.6057 13.0987 44.7377 12.6001 44.7377 12.0574V8.97741C44.7377 8.46407 44.5324 8.03874 44.1217 7.70141C43.7257 7.34941 43.1977 7.17341 42.5377 7.17341C41.9217 7.17341 41.3717 7.34207 40.8877 7.67941C40.4184 8.00207 40.0737 8.43474 39.8537 8.97741L37.4997 7.83341C37.7344 7.20274 38.101 6.66007 38.5997 6.20541C39.113 5.73607 39.7144 5.36941 40.4037 5.10541C41.093 4.84141 41.841 4.70941 42.6477 4.70941C43.6304 4.70941 44.4957 4.89274 45.2437 5.25941C45.9917 5.61141 46.571 6.11007 46.9817 6.75541C47.407 7.38607 47.6197 8.12674 47.6197 8.97741V16.9414H44.8917V14.8954L45.5077 14.8514C45.1997 15.3647 44.833 15.7974 44.4077 16.1494C43.9824 16.4867 43.4984 16.7507 42.9557 16.9414C42.413 17.1174 41.8117 17.2054 41.1517 17.2054ZM50.2834 16.9414V4.97341H52.9894V7.32741L52.7694 6.90941C53.0481 6.19074 53.5027 5.64807 54.1334 5.28141C54.7787 4.90007 55.5267 4.70941 56.3774 4.70941C57.2574 4.70941 58.0347 4.90007 58.7094 5.28141C59.3987 5.66274 59.9341 6.19807 60.3154 6.88741C60.6967 7.56207 60.8874 8.34674 60.8874 9.24141V16.9414H58.0054V9.92341C58.0054 9.39541 57.9027 8.94074 57.6974 8.55941C57.4921 8.17807 57.2061 7.88474 56.8394 7.67941C56.4874 7.45941 56.0694 7.34941 55.5854 7.34941C55.1161 7.34941 54.6981 7.45941 54.3314 7.67941C53.9647 7.88474 53.6787 8.17807 53.4734 8.55941C53.2681 8.94074 53.1654 9.39541 53.1654 9.92341V16.9414H50.2834Z" fill="#2437AC"/>
</svg>
