<svg width="40" height="34" viewBox="0 0 40 34" fill="none" xmlns="http://www.w3.org/2000/svg">
<g clip-path="url(#clip0_7_3963)">
<path d="M18.0942 33.333C14.8633 33.333 11.7049 32.3749 9.01855 30.5799C6.33216 28.7849 4.23838 26.2336 3.00197 23.2487C1.76556 20.2637 1.44206 16.9792 2.07238 13.8104C2.70269 10.6416 4.25851 7.73082 6.5431 5.44623C8.82768 3.16165 11.7384 1.60583 14.9072 0.975514C18.076 0.345199 21.3606 0.668699 24.3455 1.90511C27.3305 3.14151 29.8818 5.2353 31.6768 7.92168C33.4717 10.6081 34.4298 13.7664 34.4298 16.9973C34.425 21.3283 32.7024 25.4806 29.6399 28.5431C26.5774 31.6055 22.4252 33.3282 18.0942 33.333Z" fill="#00B8FF"/>
<path d="M18.0941 32.3374C21.1281 32.3374 24.094 31.4377 26.6166 29.7521C29.1393 28.0665 31.1055 25.6707 32.2665 22.8677C33.4276 20.0646 33.7313 16.9803 33.1395 14.0046C32.5476 11.0289 31.0865 8.29558 28.9412 6.15023C26.7959 4.00489 24.0625 2.54389 21.0868 1.95199C18.1112 1.36009 15.0268 1.66387 12.2238 2.82493C9.42074 3.98598 7.02494 5.95215 5.33936 8.47481C3.65377 10.9975 2.75409 13.9633 2.75409 16.9973C2.75888 21.0643 4.3766 24.9633 7.25238 27.8391C10.1282 30.7148 14.0272 32.3326 18.0941 32.3374Z" fill="#2437AC"/>
<path d="M38.2725 11.2021C38.0139 11.1064 37.3261 10.2944 34.2358 10.553C33.2014 10.6409 30.2043 11.5874 26.4158 12.7692L17.5459 9.19019L14.872 9.47464L22.0015 14.1475C19.5319 14.9078 16.933 15.681 14.4272 16.3534L9.21125 12.733L7.76569 13.1261L12.1825 18.7687L10.9077 21.4115L12.7566 21.1917L13.9824 19.4203C17.4593 19.3094 20.9201 18.8984 24.3263 18.192L22.5937 25.1742L24.784 24.2329L28.1769 17.3567C38.8647 14.8018 39.7853 12.8468 39.987 12.3011C40.2043 11.6805 38.5337 11.3003 38.2725 11.2021Z" fill="#00B8FF"/>
<path d="M4.25134 27.9905L22.0067 24.758L22.3429 22.8108L4.25134 27.9905Z" fill="#00B8FF"/>
<path d="M2.22656 25.2595L22.692 21.1814L23.1058 19.1074L2.22656 25.2595Z" fill="#00B8FF"/>
<path d="M10.5482 20.5893L1.02661 22.5495L11.1456 19.4023L10.5482 20.5893Z" fill="#00B8FF"/>
<path d="M10.6077 17.7757L0.437012 20.0591L9.88361 16.9534L10.6077 17.7757Z" fill="#00B8FF"/>
<path d="M9.04577 15.4819L0 17.5714L8.3217 14.657L9.04577 15.4819Z" fill="#00B8FF"/>
</g>
<defs>
<clipPath id="clip0_7_3963">
<rect width="40" height="32.6713" fill="white" transform="translate(0 0.664307)"/>
</clipPath>
</defs>
</svg>
